<svg id="Ebene_1" data-name="Ebene 1" xmlns="http://www.w3.org/2000/svg" xmlns:xlink="http://www.w3.org/1999/xlink" width="430mm" height="140mm" viewBox="0 0 1218.898 396.85">
  <defs>
    <clipPath id="clip-path">
      <path d="M97.3,191.25a110.221,110.221,0,0,0,71.5,103.2l3.263-8.7a100.934,100.934,0,0,1-65.469-94.5q0-3.777.274-7.491l-9.267-.677q-.3,4.051-.3,8.168" fill="none"/>
    </clipPath>
    <linearGradient id="Unbenannter_Verlauf_7" data-name="Unbenannter Verlauf 7" x1="-2310.912" y1="431.17" x2="-2309.363" y2="431.17" gradientTransform="matrix(0, -70.823, -70.823, 0, 30671.522, -163378.206)" gradientUnits="userSpaceOnUse">
      <stop offset="0" stop-color="#bccf01"/>
      <stop offset="1" stop-color="#00aae4"/>
    </linearGradient>
    <clipPath id="clip-path-2">
      <path d="M70.2,191.25h63.5a73.715,73.715,0,0,1,35.919-63.345L136.954,73.451A137.252,137.252,0,0,0,70.2,191.25" fill="none"/>
    </clipPath>
    <linearGradient id="Unbenannter_Verlauf_4" data-name="Unbenannter Verlauf 4" x1="-2311.906" y1="490.394" x2="-2310.357" y2="490.394" gradientTransform="matrix(-60.525, 0, 0, 60.525, -139776.207, -29548.727)" gradientUnits="userSpaceOnUse">
      <stop offset="0" stop-color="#005da8"/>
      <stop offset="1" stop-color="#00aae4"/>
    </linearGradient>
    <clipPath id="clip-path-3">
      <path d="M207.484,68.681v34.072a88.551,88.551,0,0,1,81,124.205l31.171,13.764A122.628,122.628,0,0,0,207.484,68.681Z" fill="none"/>
    </clipPath>
    <linearGradient id="Unbenannter_Verlauf_4-2" x1="-2319.489" y1="441.829" x2="-2317.94" y2="441.829" gradientTransform="matrix(0, -76.41, -76.41, 0, 34028.806, -177050.509)" xlink:href="#Unbenannter_Verlauf_4"/>
    <clipPath id="clip-path-4">
      <path d="M207.483,75.65a115.638,115.638,0,0,0-113.061,91.4l19.691,4.195a95.558,95.558,0,0,1,130.2-68.1l7.775-18.571a115.253,115.253,0,0,0-44.594-8.924h-.01" fill="none"/>
    </clipPath>
    <linearGradient id="Unbenannter_Verlauf_4-3" x1="-2312.92" y1="466.644" x2="-2311.372" y2="466.644" gradientTransform="matrix(-113.34, 0, 0, 113.34, -261886.516, -52765.798)" xlink:href="#Unbenannter_Verlauf_4"/>
    <clipPath id="clip-path-5">
      <path d="M207.483,265.033a73.238,73.238,0,0,1-37.971-10.5L136.768,308.94a137.36,137.36,0,0,0,152.837-7.669L251.6,250.405a73.289,73.289,0,0,1-44.113,14.628" fill="none"/>
    </clipPath>
    <linearGradient id="Unbenannter_Verlauf_6" data-name="Unbenannter Verlauf 6" x1="-2272.405" y1="458.378" x2="-2270.856" y2="458.378" gradientTransform="matrix(98.684, 0, 0, -98.684, 224385.65, 45523.808)" gradientUnits="userSpaceOnUse">
      <stop offset="0" stop-color="#d2d700"/>
      <stop offset="1" stop-color="#00943c"/>
    </linearGradient>
    <clipPath id="clip-path-6">
      <path d="M291.332,191.25a83.9,83.9,0,0,1-64.123,81.525l10.154,42.159A127.26,127.26,0,0,0,334.7,191.25Z" fill="none"/>
    </clipPath>
    <linearGradient id="Unbenannter_Verlauf_6-2" x1="-2314.818" y1="497.47" x2="-2313.27" y2="497.47" gradientTransform="matrix(-51.726, 0, 0, 51.726, -119384.061, -25478.936)" xlink:href="#Unbenannter_Verlauf_6"/>
    <clipPath id="clip-path-7">
      <path d="M270.92,152.182A73.49,73.49,0,0,1,282.1,191.1v.192l63.5.164,0-.356a136.99,136.99,0,0,0-20.812-72.531Z" fill="none"/>
    </clipPath>
    <linearGradient id="Unbenannter_Verlauf_7-2" x1="-2309.381" y1="416.748" x2="-2307.832" y2="416.748" gradientTransform="matrix(0, -52.024, -52.024, 0, 21989.335, -119938.646)" xlink:href="#Unbenannter_Verlauf_7"/>
  </defs>
  <g>
    <path d="M1148.1,146.62q1.9-11.282-2.2-19.662a28.439,28.439,0,0,0-13.464-13.016q-9.357-4.636-23.209-4.636a65.34,65.34,0,0,0-24.83,4.553,48.537,48.537,0,0,0-18.435,12.735,37.419,37.419,0,0,0-9.021,19.132q-2.177,13.407,5.252,21.116t22.009,11.059l10.948,2.458a48.872,48.872,0,0,1,9.664,2.961,11.44,11.44,0,0,1,4.86,3.631,6.085,6.085,0,0,1,.894,4.581,9.227,9.227,0,0,1-2.514,4.971,13.779,13.779,0,0,1-5.642,3.408,26.6,26.6,0,0,1-8.6,1.229,23.409,23.409,0,0,1-9.887-1.844,11.668,11.668,0,0,1-5.754-5.418,15.174,15.174,0,0,1-1.117-8.826h-29.494q-2.346,14.3,2.263,23.49a28.653,28.653,0,0,0,14.97,13.629q10.361,4.442,25.221,4.442a73.774,73.774,0,0,0,25.584-4.078,43.22,43.22,0,0,0,17.93-11.9,37.777,37.777,0,0,0,8.771-19.1,32.377,32.377,0,0,0-.028-12.066,23.4,23.4,0,0,0-4.721-10,30.379,30.379,0,0,0-9.8-7.736,61.785,61.785,0,0,0-15.389-5.28l-8.938-2.01a47.743,47.743,0,0,1-6.731-1.9,17,17,0,0,1-4.525-2.4,6.716,6.716,0,0,1-2.291-2.989,6.235,6.235,0,0,1-.083-3.658,8.941,8.941,0,0,1,2.207-4.526,11.713,11.713,0,0,1,4.971-3.072,24.7,24.7,0,0,1,8.017-1.117q7.541,0,10.725,3.156t2.681,8.686Z" fill="#4a4949"/>
    <path d="M1000.141,181.477a21.53,21.53,0,0,1-11.423,15.948A21.122,21.122,0,0,1,978.8,199.8a16.546,16.546,0,0,1-9.05-2.374,13.539,13.539,0,0,1-5.418-6.508,17.5,17.5,0,0,1-.838-9.44l11.73-70.607H944.169l-12.177,73.288q-2.122,13.073,2.486,22.6a31.776,31.776,0,0,0,14.831,14.69q10.221,5.169,25.025,5.168a66.861,66.861,0,0,0,26.7-5.168,51.306,51.306,0,0,0,19.8-14.69,46.819,46.819,0,0,0,9.915-22.6l12.177-73.288h-31.058Z" fill="#4a4949"/>
    <polygon points="832.209 110.87 827.964 135.895 862.373 135.895 847.627 225.272 878.238 225.272 892.985 135.895 927.394 135.895 931.641 110.87 832.209 110.87" fill="#4a4949"/>
    <polygon points="717.913 225.272 800.139 225.272 804.384 200.247 753.217 200.247 756.345 180.584 803.491 180.584 807.736 155.558 760.59 155.558 763.719 135.895 815.11 135.895 819.355 110.87 736.905 110.87 717.913 225.272" fill="#4a4949"/>
    <path d="M700.653,115.9q-8.715-5.026-21.451-5.027H629.821l-18.992,114.4h31.059l5.674-33.963h17.117a56.993,56.993,0,0,0,23.825-4.832,45.468,45.468,0,0,0,17.539-13.8,46.633,46.633,0,0,0,8.91-21.367q2.012-12.177-1.787-21.283A28.716,28.716,0,0,0,700.653,115.9Zm-18.1,35.415a19,19,0,0,1-3.409,8.463,17.22,17.22,0,0,1-6.87,5.475,23.578,23.578,0,0,1-9.832,1.926h-10.85l5.264-31.5h10.95a19.266,19.266,0,0,1,9.021,1.87,10.666,10.666,0,0,1,5.027,5.364A15.227,15.227,0,0,1,682.555,151.312Z" fill="#4a4949"/>
    <polygon points="530.927 175.668 529.586 175.668 513.722 110.87 475.067 110.87 456.074 225.272 486.463 225.272 497.634 158.686 498.527 158.686 513.051 224.378 531.373 224.378 567.571 159.134 568.464 159.134 557.516 225.272 587.904 225.272 606.897 110.87 568.241 110.87 530.927 175.668" fill="#4a4949"/>
    <polygon points="402.122 225.272 433.181 225.272 452.173 110.87 421.114 110.87 402.122 225.272" fill="#4a4949"/>
  </g>
  <g>
    <path d="M588.325,256.8a3.115,3.115,0,0,0-2.086.784,2.729,2.729,0,0,0-1.008,1.888,2.3,2.3,0,0,0,.681,1.894,2.615,2.615,0,0,0,1.948.791,3.1,3.1,0,0,0,2.093-.783,2.693,2.693,0,0,0,.988-1.888,2.314,2.314,0,0,0-.674-1.9A2.6,2.6,0,0,0,588.325,256.8Z" fill="#4a4949"/>
    <path d="M617.9,264.88a8.241,8.241,0,0,0-4.124,1.036,7.2,7.2,0,0,0-2.814,2.794h-.219a4.357,4.357,0,0,0-1.6-2.8,5.329,5.329,0,0,0-3.4-1.03,7.2,7.2,0,0,0-3.8,1.016,7.1,7.1,0,0,0-2.638,2.814h-.246l.6-3.557h-4.717l-3.49,20.937h4.934l2.127-12.732a5.418,5.418,0,0,1,.879-2.255,4.937,4.937,0,0,1,1.644-1.521,4.087,4.087,0,0,1,2.03-.545,2.938,2.938,0,0,1,2.379.962,3.131,3.131,0,0,1,.565,2.6l-2.262,13.495h4.838l2.194-13.059a4.83,4.83,0,0,1,1.459-2.89,4.2,4.2,0,0,1,2.973-1.1,3.176,3.176,0,0,1,2.378.9,3.266,3.266,0,0,1,.592,2.864l-2.235,13.289H620.9l2.345-14.053q.586-3.489-.948-5.323A5.408,5.408,0,0,0,617.9,264.88Z" fill="#4a4949"/>
    <path d="M1148.339,268.492a5,5,0,0,0-2.072-2.686,6.635,6.635,0,0,0-3.606-.926,8.039,8.039,0,0,0-4.13,1.036,7.418,7.418,0,0,0-2.766,2.794h-.247l.6-3.557H1131.4l-3.49,20.937h4.935l2.018-12.267a6.4,6.4,0,0,1,1.016-2.577,5.068,5.068,0,0,1,1.832-1.63,5.148,5.148,0,0,1,2.4-.565,3.231,3.231,0,0,1,2.795,1.193,4.249,4.249,0,0,1,.532,3.278l-2.087,12.568h4.935l2.236-13.331A8.678,8.678,0,0,0,1148.339,268.492Z" fill="#4a4949"/>
    <path d="M658.059,260.136h-4.934l-.828,5.017h-2.96l-.627,3.816h2.957l-1.921,11.642a5.294,5.294,0,0,0,.292,3.263,4,4,0,0,0,2.017,1.93,7.308,7.308,0,0,0,3.264.571,9.758,9.758,0,0,0,1.8-.19c.51-.108.914-.209,1.213-.3l-.217-3.858c-.146.036-.35.078-.613.122a4.938,4.938,0,0,1-.86.069,2.916,2.916,0,0,1-1.09-.191,1.269,1.269,0,0,1-.7-.715,2.841,2.841,0,0,1-.062-1.52l1.8-10.824h4.155l.627-3.816h-4.147Z" fill="#4a4949"/>
    <path d="M643.43,266.4a7.162,7.162,0,0,0-2.542-1.165,12.169,12.169,0,0,0-2.944-.355,12.863,12.863,0,0,0-4.123.648,9.852,9.852,0,0,0-3.4,1.936,9.019,9.019,0,0,0-2.317,3.2l4.47.654a4.987,4.987,0,0,1,1.793-1.868,5.51,5.51,0,0,1,3.033-.79,3.1,3.1,0,0,1,2.447.852,2.791,2.791,0,0,1,.5,2.379v.082a1.443,1.443,0,0,1-.722,1.028,5.072,5.072,0,0,1-1.759.5q-1.173.165-3.026.355a21.055,21.055,0,0,0-3.039.519,10.914,10.914,0,0,0-2.727,1.062,6.54,6.54,0,0,0-2.093,1.854,6.817,6.817,0,0,0-1.15,2.931,5.618,5.618,0,0,0,.354,3.463,4.571,4.571,0,0,0,2.161,2.118,7.789,7.789,0,0,0,3.455.717,8.791,8.791,0,0,0,2.93-.457,7.523,7.523,0,0,0,2.235-1.214,7.351,7.351,0,0,0,1.527-1.628h.164l-.49,2.876h4.743l2.331-14.013a6.848,6.848,0,0,0-.178-3.475A4.659,4.659,0,0,0,643.43,266.4Zm-4.191,12.179a4.674,4.674,0,0,1-.954,2.14,5.621,5.621,0,0,1-1.95,1.575,5.893,5.893,0,0,1-2.672.592,3.776,3.776,0,0,1-2.419-.694,2.011,2.011,0,0,1-.633-2.058,2.655,2.655,0,0,1,.749-1.561,4.238,4.238,0,0,1,1.548-.948,9.877,9.877,0,0,1,2.064-.491l1.172-.163c.456-.063.914-.136,1.377-.218s.891-.178,1.281-.286a2.708,2.708,0,0,0,.846-.355Z" fill="#4a4949"/>
    <path d="M710.5,265.814a9.435,9.435,0,0,0-4.363-.934,11.274,11.274,0,0,0-5.547,1.371,11.638,11.638,0,0,0-4.109,3.816,14.1,14.1,0,0,0-2.148,5.636,11.728,11.728,0,0,0,.266,5.61,7.186,7.186,0,0,0,2.808,3.809,8.95,8.95,0,0,0,5.159,1.377,11.227,11.227,0,0,0,4.73-.961,9.771,9.771,0,0,0,3.517-2.672,9.979,9.979,0,0,0,1.99-3.932H708.09a5.717,5.717,0,0,1-1.124,1.922,4.888,4.888,0,0,1-1.657,1.206,4.965,4.965,0,0,1-2.031.415,3.861,3.861,0,0,1-2.541-.824,4.235,4.235,0,0,1-1.377-2.358,9.21,9.21,0,0,1-.02-3.674A10.482,10.482,0,0,1,700.559,272a6.583,6.583,0,0,1,2.168-2.323,5.184,5.184,0,0,1,2.814-.811,3.383,3.383,0,0,1,2.672,1.016,3.836,3.836,0,0,1,.94,2.527h4.717a6.944,6.944,0,0,0-.669-3.958A6.092,6.092,0,0,0,710.5,265.814Z" fill="#4a4949"/>
    <path d="M680.039,267.416a6.762,6.762,0,0,0-2.74-1.916,9.919,9.919,0,0,0-3.559-.62,10.994,10.994,0,0,0-5.445,1.371,11.759,11.759,0,0,0-4.095,3.816,14.254,14.254,0,0,0-2.168,5.678,11.673,11.673,0,0,0,.28,5.7,6.938,6.938,0,0,0,2.89,3.734,9.5,9.5,0,0,0,5.2,1.316,12.787,12.787,0,0,0,4.465-.743,10.1,10.1,0,0,0,3.456-2.1,9.015,9.015,0,0,0,2.194-3.182L676,279.956a4.83,4.83,0,0,1-1.213,1.485,5.182,5.182,0,0,1-1.663.908,6.4,6.4,0,0,1-2.016.306,5.852,5.852,0,0,1-2.748-.579,3.18,3.18,0,0,1-1.539-1.82,6.606,6.606,0,0,1-.13-3.216l.012-.069h14.6l.232-1.513a12.872,12.872,0,0,0,.041-4.75A7.229,7.229,0,0,0,680.039,267.416Zm-2.944,6.229h-9.79a5.917,5.917,0,0,1,1.038-2.255,7.1,7.1,0,0,1,2.126-1.916,5.247,5.247,0,0,1,2.714-.75,4.189,4.189,0,0,1,2.385.641,3.486,3.486,0,0,1,1.357,1.752A5,5,0,0,1,677.1,273.645Z" fill="#4a4949"/>
    <polygon points="581.209 286.09 586.143 286.09 589.634 265.153 584.698 265.153 581.209 286.09" fill="#4a4949"/>
    <path d="M1122.239,266.251a9.062,9.062,0,0,0-5.145-1.371,11.094,11.094,0,0,0-9.528,5.071,14.2,14.2,0,0,0-2.14,5.616,11.833,11.833,0,0,0,.307,5.746,7.269,7.269,0,0,0,2.883,3.823,9.106,9.106,0,0,0,5.153,1.363,11.254,11.254,0,0,0,5.466-1.328,11.434,11.434,0,0,0,4.054-3.73,13.963,13.963,0,0,0,2.147-5.6,11.873,11.873,0,0,0-.307-5.752A7.274,7.274,0,0,0,1122.239,266.251Zm-1.75,9.3a11.443,11.443,0,0,1-1.152,3.537,7.1,7.1,0,0,1-2.147,2.522,5.059,5.059,0,0,1-3.012.933,3.606,3.606,0,0,1-2.6-.9,4.365,4.365,0,0,1-1.229-2.426,9.725,9.725,0,0,1,.028-3.4,11.586,11.586,0,0,1,1.145-3.557,7.05,7.05,0,0,1,2.148-2.535,5.07,5.07,0,0,1,3.032-.941,3.577,3.577,0,0,1,2.59.906,4.415,4.415,0,0,1,1.227,2.441A9.856,9.856,0,0,1,1120.489,275.553Z" fill="#4a4949"/>
    <path d="M532.1,268.616h-.273a6.917,6.917,0,0,0-.8-1.629,4.653,4.653,0,0,0-1.649-1.487,5.941,5.941,0,0,0-2.93-.62,9.111,9.111,0,0,0-4.58,1.235,10.842,10.842,0,0,0-3.715,3.611,15.1,15.1,0,0,0-2.119,5.827,11.81,11.81,0,0,0,.217,5.691,6.323,6.323,0,0,0,2.543,3.408,7.537,7.537,0,0,0,4.177,1.138,7.847,7.847,0,0,0,3.082-.545,7.24,7.24,0,0,0,2.138-1.349,8.525,8.525,0,0,0,1.351-1.567h.245l-.628,3.966a4.5,4.5,0,0,1-1.936,3.257,6.623,6.623,0,0,1-3.665,1.008,5.955,5.955,0,0,1-2.406-.4,3.428,3.428,0,0,1-1.35-1,4.4,4.4,0,0,1-.661-1.15l-4.634,1.076a5.343,5.343,0,0,0,1.186,2.6,6.585,6.585,0,0,0,2.76,1.894,12.2,12.2,0,0,0,4.464.71,14.914,14.914,0,0,0,5.172-.866,9.613,9.613,0,0,0,3.933-2.617,8.5,8.5,0,0,0,2-4.382l3.517-21.278h-4.866Zm-1.145,6.91a10.1,10.1,0,0,1-1.152,3.436,6.05,6.05,0,0,1-2.071,2.194,5.265,5.265,0,0,1-2.8.762,3.946,3.946,0,0,1-2.6-.8,3.853,3.853,0,0,1-1.267-2.236,9.328,9.328,0,0,1-.007-3.36,11.113,11.113,0,0,1,1.1-3.387,6.471,6.471,0,0,1,2.01-2.352,4.914,4.914,0,0,1,2.89-.858,3.853,3.853,0,0,1,2.562.824,4.111,4.111,0,0,1,1.322,2.31A8.958,8.958,0,0,1,530.953,275.526Z" fill="#4a4949"/>
    <path d="M457.939,264.88c-.327-.018-.632-.028-.912-.028a6.228,6.228,0,0,0-3.375.99,6.5,6.5,0,0,0-2.433,2.8H451l.587-3.489H446.8l-3.489,20.937h4.934l2.03-12.309a5.283,5.283,0,0,1,1.017-2.357,5.546,5.546,0,0,1,4.449-2.182,10,10,0,0,1,1.3.089,5.034,5.034,0,0,1,.96.2l.763-4.539A4.882,4.882,0,0,0,457.939,264.88Z" fill="#4a4949"/>
    <polygon points="570.954 286.09 575.889 286.09 580.524 258.174 575.59 258.174 570.954 286.09" fill="#4a4949"/>
    <path d="M476.521,265.806a6.638,6.638,0,0,0-3.606-.926,8.033,8.033,0,0,0-4.129,1.036,7.413,7.413,0,0,0-2.767,2.794h-.245l.6-3.557h-4.716l-3.491,20.937H463.1l2.018-12.267a6.4,6.4,0,0,1,1.016-2.577,5.062,5.062,0,0,1,1.833-1.63,5.142,5.142,0,0,1,2.4-.565,3.23,3.23,0,0,1,2.794,1.193,4.245,4.245,0,0,1,.532,3.278l-2.086,12.568h4.934l2.236-13.331a8.678,8.678,0,0,0-.184-4.267A5,5,0,0,0,476.521,265.806Z" fill="#4a4949"/>
    <polygon points="423.727 258.174 401.454 258.174 400.745 262.413 409.373 262.413 405.447 286.09 410.463 286.09 414.389 262.413 423.017 262.413 423.727 258.174" fill="#4a4949"/>
    <path d="M434.486,277.284a5.674,5.674,0,0,1-1.09,2.652,5.472,5.472,0,0,1-1.942,1.587,5.065,5.065,0,0,1-2.2.533,3.144,3.144,0,0,1-2.666-1.172,4.02,4.02,0,0,1-.579-3.163l2.1-12.568h-4.935l-2.235,13.332a8.939,8.939,0,0,0,.185,4.273,4.961,4.961,0,0,0,2.01,2.685,6.253,6.253,0,0,0,3.476.92,7.854,7.854,0,0,0,6.978-3.994h.218l-.627,3.721h4.786l3.489-20.937h-4.934Z" fill="#4a4949"/>
    <path d="M565.656,265.814a9.427,9.427,0,0,0-4.361-.934,11.275,11.275,0,0,0-5.548,1.371,11.641,11.641,0,0,0-4.11,3.816,14.127,14.127,0,0,0-2.147,5.636,11.7,11.7,0,0,0,.266,5.61,7.186,7.186,0,0,0,2.808,3.809,8.95,8.95,0,0,0,5.159,1.377,11.23,11.23,0,0,0,4.73-.961,9.763,9.763,0,0,0,3.517-2.672,10.008,10.008,0,0,0,1.991-3.932h-4.716a5.736,5.736,0,0,1-1.125,1.922,4.9,4.9,0,0,1-1.657,1.206,4.968,4.968,0,0,1-2.03.415,3.87,3.87,0,0,1-2.543-.824,4.253,4.253,0,0,1-1.377-2.358,9.247,9.247,0,0,1-.02-3.674,10.524,10.524,0,0,1,1.22-3.626,6.581,6.581,0,0,1,2.167-2.323,5.19,5.19,0,0,1,2.815-.811,3.383,3.383,0,0,1,2.672,1.016,3.831,3.831,0,0,1,.94,2.527h4.716a6.952,6.952,0,0,0-.667-3.958A6.087,6.087,0,0,0,565.656,265.814Z" fill="#4a4949"/>
    <path d="M510.187,265.806a6.632,6.632,0,0,0-3.605-.926,8.045,8.045,0,0,0-4.131,1.036,7.425,7.425,0,0,0-2.766,2.794h-.246l.6-3.557h-4.716l-3.489,20.937h4.934l2.019-12.267a6.4,6.4,0,0,1,1.014-2.577,5.09,5.09,0,0,1,1.834-1.63,5.142,5.142,0,0,1,2.4-.565,3.229,3.229,0,0,1,2.794,1.193,4.245,4.245,0,0,1,.533,3.278l-2.087,12.568h4.935l2.235-13.331a8.691,8.691,0,0,0-.183-4.267A5.013,5.013,0,0,0,510.187,265.806Z" fill="#4a4949"/>
    <polygon points="481.59 286.09 486.524 286.09 490.013 265.153 485.079 265.153 481.59 286.09" fill="#4a4949"/>
    <path d="M488.705,256.8a3.115,3.115,0,0,0-2.085.784,2.736,2.736,0,0,0-1.01,1.888,2.3,2.3,0,0,0,.683,1.894,2.616,2.616,0,0,0,1.949.791,3.1,3.1,0,0,0,2.092-.783,2.693,2.693,0,0,0,.988-1.888,2.314,2.314,0,0,0-.674-1.9A2.6,2.6,0,0,0,488.705,256.8Z" fill="#4a4949"/>
    <path d="M1101.711,256.8a3.116,3.116,0,0,0-2.087.784,2.737,2.737,0,0,0-1.008,1.888,2.3,2.3,0,0,0,.682,1.894,2.614,2.614,0,0,0,1.949.791,3.112,3.112,0,0,0,2.093-.783,2.7,2.7,0,0,0,.988-1.888,2.316,2.316,0,0,0-.676-1.9A2.6,2.6,0,0,0,1101.711,256.8Z" fill="#4a4949"/>
    <path d="M985.545,265.806a6.633,6.633,0,0,0-3.606-.926,8.039,8.039,0,0,0-4.13,1.036,7.411,7.411,0,0,0-2.766,2.794H974.8l.6-3.557H970.68l-3.489,20.937h4.934l2.018-12.267a6.416,6.416,0,0,1,1.014-2.577,5.016,5.016,0,0,1,4.233-2.195,3.229,3.229,0,0,1,2.794,1.193,4.245,4.245,0,0,1,.533,3.278l-2.086,12.568h4.934l2.235-13.331a8.679,8.679,0,0,0-.183-4.267A5.006,5.006,0,0,0,985.545,265.806Z" fill="#4a4949"/>
    <path d="M964.062,256.8a3.115,3.115,0,0,0-2.085.784,2.74,2.74,0,0,0-1.01,1.888,2.3,2.3,0,0,0,.684,1.894,2.612,2.612,0,0,0,1.948.791,3.1,3.1,0,0,0,2.092-.783,2.693,2.693,0,0,0,.988-1.888,2.312,2.312,0,0,0-.675-1.9A2.6,2.6,0,0,0,964.062,256.8Z" fill="#4a4949"/>
    <path d="M1000.8,260.136h-4.934l-.829,5.017h-2.961l-.626,3.816h2.957l-1.922,11.642a5.3,5.3,0,0,0,.294,3.263,3.99,3.99,0,0,0,2.017,1.93,7.3,7.3,0,0,0,3.264.571,9.768,9.768,0,0,0,1.8-.19c.508-.108.914-.209,1.212-.3l-.218-3.858c-.145.036-.35.078-.613.122a4.9,4.9,0,0,1-.858.069,2.916,2.916,0,0,1-1.09-.191,1.261,1.261,0,0,1-.7-.715,2.833,2.833,0,0,1-.061-1.52l1.8-10.824h4.155l.628-3.816h-4.148Z" fill="#4a4949"/>
    <path d="M921.657,268.969h4.155l.628-3.816h-4.148l.835-5.017h-4.934l-.829,5.017H914.4l-.627,3.816h2.958l-1.922,11.642a5.3,5.3,0,0,0,.293,3.263,4,4,0,0,0,2.016,1.93,7.312,7.312,0,0,0,3.265.571,9.768,9.768,0,0,0,1.8-.19c.509-.108.913-.209,1.213-.3l-.217-3.858c-.146.036-.35.078-.615.122a4.906,4.906,0,0,1-.858.069,2.925,2.925,0,0,1-1.091-.191,1.255,1.255,0,0,1-.7-.715,2.831,2.831,0,0,1-.062-1.52Z" fill="#4a4949"/>
    <path d="M934.8,269.283a5.416,5.416,0,0,1,2.822-.723,3.928,3.928,0,0,1,1.806.363,2.528,2.528,0,0,1,1.056.96,3.256,3.256,0,0,1,.435,1.3l4.526-.491a5.4,5.4,0,0,0-1.962-4.239,8.686,8.686,0,0,0-5.644-1.568,12.6,12.6,0,0,0-4.47.756,8.493,8.493,0,0,0-3.286,2.14,6.217,6.217,0,0,0-1.594,3.279,4.7,4.7,0,0,0,.838,3.892,7.032,7.032,0,0,0,4.151,2.161l3.435.749a4.228,4.228,0,0,1,1.962.858,1.479,1.479,0,0,1,.409,1.377A2.755,2.755,0,0,1,937.859,282a5.618,5.618,0,0,1-3.089.778,4.08,4.08,0,0,1-2.535-.73,2.756,2.756,0,0,1-.994-2.132l-4.854.463a5.284,5.284,0,0,0,2.086,4.5A9.712,9.712,0,0,0,934.5,286.5a12.954,12.954,0,0,0,4.7-.817,9.2,9.2,0,0,0,3.483-2.285,6.484,6.484,0,0,0,1.689-3.4,4.366,4.366,0,0,0-.885-3.75,7.518,7.518,0,0,0-4.117-2.072l-3.462-.762a4.681,4.681,0,0,1-2.079-.9,1.442,1.442,0,0,1-.4-1.377A2.575,2.575,0,0,1,934.8,269.283Z" fill="#4a4949"/>
    <polygon points="956.947 286.09 961.881 286.09 965.371 265.153 960.436 265.153 956.947 286.09" fill="#4a4949"/>
    <polygon points="1094.596 286.09 1099.53 286.09 1103.019 265.153 1098.085 265.153 1094.596 286.09" fill="#4a4949"/>
    <path d="M1054.371,266.4a7.157,7.157,0,0,0-2.541-1.165,12.169,12.169,0,0,0-2.944-.355,12.875,12.875,0,0,0-4.125.648,9.879,9.879,0,0,0-3.4,1.936,9.056,9.056,0,0,0-2.317,3.2l4.472.654a4.976,4.976,0,0,1,1.792-1.868,5.507,5.507,0,0,1,3.033-.79,3.091,3.091,0,0,1,2.446.852,2.8,2.8,0,0,1,.5,2.379v.082a1.449,1.449,0,0,1-.724,1.028,5.066,5.066,0,0,1-1.757.5q-1.175.165-3.027.355a21.092,21.092,0,0,0-3.04.519,10.922,10.922,0,0,0-2.726,1.062,6.526,6.526,0,0,0-2.092,1.854,6.768,6.768,0,0,0-1.152,2.931,5.639,5.639,0,0,0,.354,3.463,4.58,4.58,0,0,0,2.161,2.118,7.8,7.8,0,0,0,3.455.717,8.794,8.794,0,0,0,2.932-.457,7.536,7.536,0,0,0,2.235-1.214,7.422,7.422,0,0,0,1.527-1.628h.162l-.489,2.876h4.742l2.331-14.013A6.828,6.828,0,0,0,1056,268.6,4.673,4.673,0,0,0,1054.371,266.4Zm-4.191,12.179a4.685,4.685,0,0,1-.954,2.14,5.608,5.608,0,0,1-1.949,1.575,5.893,5.893,0,0,1-2.672.592,3.768,3.768,0,0,1-2.419-.694,2.007,2.007,0,0,1-.634-2.058,2.644,2.644,0,0,1,.75-1.561,4.233,4.233,0,0,1,1.547-.948,9.887,9.887,0,0,1,2.065-.491l1.172-.163c.454-.063.914-.136,1.377-.218s.89-.178,1.281-.286a2.733,2.733,0,0,0,.845-.355Z" fill="#4a4949"/>
    <path d="M1091.064,260.136h-4.934l-.828,5.017h-2.96l-.627,3.816h2.957l-1.921,11.642a5.3,5.3,0,0,0,.292,3.263,4,4,0,0,0,2.017,1.93,7.3,7.3,0,0,0,3.265.571,9.756,9.756,0,0,0,1.8-.19c.51-.108.914-.209,1.213-.3l-.218-3.858c-.144.036-.349.078-.614.122a4.9,4.9,0,0,1-.858.069,2.916,2.916,0,0,1-1.09-.191,1.257,1.257,0,0,1-.7-.715,2.841,2.841,0,0,1-.062-1.52l1.8-10.824h4.155l.627-3.816h-4.147Z" fill="#4a4949"/>
    <path d="M1021.59,266.251a9.066,9.066,0,0,0-5.146-1.371,11.087,11.087,0,0,0-9.526,5.071,14.158,14.158,0,0,0-2.141,5.616,11.857,11.857,0,0,0,.307,5.746,7.262,7.262,0,0,0,2.882,3.823,9.106,9.106,0,0,0,5.153,1.363,11.242,11.242,0,0,0,5.465-1.328,11.443,11.443,0,0,0,4.057-3.73,14.006,14.006,0,0,0,2.146-5.6,11.873,11.873,0,0,0-.307-5.752A7.274,7.274,0,0,0,1021.59,266.251Zm-1.751,9.3a11.366,11.366,0,0,1-1.153,3.537,7.1,7.1,0,0,1-2.146,2.522,5.058,5.058,0,0,1-3.013.933,3.611,3.611,0,0,1-2.6-.9,4.363,4.363,0,0,1-1.227-2.426,9.7,9.7,0,0,1,.028-3.4,11.586,11.586,0,0,1,1.145-3.557,7.057,7.057,0,0,1,2.147-2.535,5.07,5.07,0,0,1,3.032-.941,3.571,3.571,0,0,1,2.589.906,4.424,4.424,0,0,1,1.229,2.441A9.834,9.834,0,0,1,1019.839,275.553Z" fill="#4a4949"/>
    <path d="M733.211,266.251a9.068,9.068,0,0,0-5.146-1.371,11.09,11.09,0,0,0-9.528,5.071,14.188,14.188,0,0,0-2.141,5.616,11.882,11.882,0,0,0,.307,5.746,7.266,7.266,0,0,0,2.884,3.823,9.1,9.1,0,0,0,5.152,1.363,11.248,11.248,0,0,0,5.466-1.328,11.434,11.434,0,0,0,4.054-3.73,13.965,13.965,0,0,0,2.149-5.6,11.91,11.91,0,0,0-.307-5.752A7.274,7.274,0,0,0,733.211,266.251Zm-1.752,9.3a11.391,11.391,0,0,1-1.152,3.537,7.11,7.11,0,0,1-2.146,2.522,5.06,5.06,0,0,1-3.013.933,3.609,3.609,0,0,1-2.6-.9,4.363,4.363,0,0,1-1.227-2.426,9.674,9.674,0,0,1,.026-3.4,11.615,11.615,0,0,1,1.147-3.557,7.035,7.035,0,0,1,2.146-2.535,5.075,5.075,0,0,1,3.033-.941,3.576,3.576,0,0,1,2.589.906,4.415,4.415,0,0,1,1.227,2.441A9.759,9.759,0,0,1,731.459,275.553Z" fill="#4a4949"/>
    <polygon points="808.076 286.09 813.01 286.09 816.5 265.153 811.566 265.153 808.076 286.09" fill="#4a4949"/>
    <path d="M815.191,256.8a3.112,3.112,0,0,0-2.084.784,2.74,2.74,0,0,0-1.01,1.888,2.3,2.3,0,0,0,.683,1.894,2.612,2.612,0,0,0,1.948.791,3.1,3.1,0,0,0,2.092-.783,2.693,2.693,0,0,0,.988-1.888,2.314,2.314,0,0,0-.673-1.9A2.6,2.6,0,0,0,815.191,256.8Z" fill="#4a4949"/>
    <path d="M799.928,264.88a8.241,8.241,0,0,0-4.124,1.036,7.2,7.2,0,0,0-2.814,2.794h-.219a4.353,4.353,0,0,0-1.6-2.8,5.321,5.321,0,0,0-3.4-1.03,7.208,7.208,0,0,0-3.8,1.016,7.1,7.1,0,0,0-2.637,2.814h-.247l.6-3.557h-4.716l-3.491,20.937h4.935l2.126-12.732a5.406,5.406,0,0,1,.88-2.255,4.934,4.934,0,0,1,1.643-1.521,4.087,4.087,0,0,1,2.03-.545,2.936,2.936,0,0,1,2.379.962,3.128,3.128,0,0,1,.566,2.6l-2.263,13.495h4.84l2.194-13.059a4.818,4.818,0,0,1,1.458-2.89,4.2,4.2,0,0,1,2.972-1.1,3.176,3.176,0,0,1,2.378.9,3.272,3.272,0,0,1,.594,2.864l-2.237,13.289h4.949l2.344-14.053q.587-3.489-.947-5.323A5.411,5.411,0,0,0,799.928,264.88Z" fill="#4a4949"/>
    <path d="M907.872,265.806a6.635,6.635,0,0,0-3.606-.926,8.039,8.039,0,0,0-4.13,1.036,7.418,7.418,0,0,0-2.766,2.794h-.247l.6-3.557h-4.717l-3.49,20.937h4.935l2.018-12.267a6.43,6.43,0,0,1,1.014-2.577,5.09,5.09,0,0,1,1.834-1.63,5.148,5.148,0,0,1,2.4-.565,3.231,3.231,0,0,1,2.795,1.193,4.249,4.249,0,0,1,.532,3.278l-2.087,12.568h4.935l2.236-13.331a8.69,8.69,0,0,0-.184-4.267A5,5,0,0,0,907.872,265.806Z" fill="#4a4949"/>
    <path d="M765.328,264.88a8.248,8.248,0,0,0-4.125,1.036,7.207,7.207,0,0,0-2.814,2.794h-.218a4.354,4.354,0,0,0-1.6-2.8,5.321,5.321,0,0,0-3.4-1.03,7.208,7.208,0,0,0-3.8,1.016,7.1,7.1,0,0,0-2.637,2.814h-.245l.6-3.557h-4.717l-3.489,20.937h4.935l2.126-12.732a5.4,5.4,0,0,1,.878-2.255,4.944,4.944,0,0,1,1.643-1.521,4.088,4.088,0,0,1,2.031-.545,2.938,2.938,0,0,1,2.379.962,3.131,3.131,0,0,1,.565,2.6l-2.263,13.495h4.84l2.195-13.059a4.811,4.811,0,0,1,1.457-2.89,4.2,4.2,0,0,1,2.972-1.1,3.18,3.18,0,0,1,2.379.9,3.272,3.272,0,0,1,.593,2.864l-2.236,13.289h4.948l2.345-14.053q.585-3.489-.948-5.323A5.409,5.409,0,0,0,765.328,264.88Z" fill="#4a4949"/>
    <path d="M828.563,260.136h-4.934l-.828,5.017H819.84l-.627,3.816h2.958l-1.922,11.642a5.3,5.3,0,0,0,.293,3.263,4,4,0,0,0,2.017,1.93,7.305,7.305,0,0,0,3.264.571,9.768,9.768,0,0,0,1.8-.19c.509-.108.914-.209,1.213-.3l-.217-3.858c-.146.036-.35.078-.613.122a4.922,4.922,0,0,1-.86.069,2.916,2.916,0,0,1-1.09-.191,1.263,1.263,0,0,1-.7-.715,2.841,2.841,0,0,1-.062-1.52l1.8-10.824h4.156l.627-3.816h-4.148Z" fill="#4a4949"/>
    <path d="M1075.668,265.814a9.427,9.427,0,0,0-4.361-.934,11.277,11.277,0,0,0-5.549,1.371,11.655,11.655,0,0,0-4.109,3.816,14.127,14.127,0,0,0-2.147,5.636,11.716,11.716,0,0,0,.265,5.61,7.2,7.2,0,0,0,2.808,3.809,8.951,8.951,0,0,0,5.16,1.377,11.233,11.233,0,0,0,4.73-.961,9.776,9.776,0,0,0,3.516-2.672,9.966,9.966,0,0,0,1.99-3.932h-4.716a5.717,5.717,0,0,1-1.124,1.922,4.885,4.885,0,0,1-1.656,1.206,4.97,4.97,0,0,1-2.032.415,3.861,3.861,0,0,1-2.541-.824,4.241,4.241,0,0,1-1.377-2.358,9.247,9.247,0,0,1-.02-3.674,10.462,10.462,0,0,1,1.22-3.626,6.572,6.572,0,0,1,2.167-2.323,5.184,5.184,0,0,1,2.814-.811,3.383,3.383,0,0,1,2.672,1.016,3.832,3.832,0,0,1,.941,2.527h4.716a6.944,6.944,0,0,0-.667-3.958A6.107,6.107,0,0,0,1075.668,265.814Z" fill="#4a4949"/>
    <path d="M885.443,267.416a6.762,6.762,0,0,0-2.74-1.916,9.917,9.917,0,0,0-3.558-.62,10.994,10.994,0,0,0-5.445,1.371,11.756,11.756,0,0,0-4.1,3.816,14.222,14.222,0,0,0-2.166,5.678,11.687,11.687,0,0,0,.278,5.7,6.94,6.94,0,0,0,2.891,3.734,9.494,9.494,0,0,0,5.2,1.316,12.783,12.783,0,0,0,4.465-.743,10.088,10.088,0,0,0,3.455-2.1,9.031,9.031,0,0,0,2.195-3.182l-4.512-.519a4.862,4.862,0,0,1-1.214,1.485,5.166,5.166,0,0,1-1.662.908,6.409,6.409,0,0,1-2.018.306,5.838,5.838,0,0,1-2.746-.579,3.187,3.187,0,0,1-1.541-1.82,6.585,6.585,0,0,1-.128-3.216l.011-.069h14.6l.232-1.513a12.869,12.869,0,0,0,.04-4.75A7.228,7.228,0,0,0,885.443,267.416Zm-2.945,6.229h-9.789a5.915,5.915,0,0,1,1.037-2.255,7.114,7.114,0,0,1,2.127-1.916,5.241,5.241,0,0,1,2.713-.75,4.187,4.187,0,0,1,2.385.641,3.464,3.464,0,0,1,1.357,1.752A4.979,4.979,0,0,1,882.5,273.645Z" fill="#4a4949"/>
    <path d="M858.7,264.88a8.238,8.238,0,0,0-4.123,1.036,7.205,7.205,0,0,0-2.816,2.794h-.218a4.354,4.354,0,0,0-1.6-2.8,5.321,5.321,0,0,0-3.4-1.03,7.21,7.21,0,0,0-3.8,1.016,7.106,7.106,0,0,0-2.637,2.814h-.245l.6-3.557h-4.715l-3.49,20.937h4.935l2.126-12.732a5.4,5.4,0,0,1,.878-2.255,4.953,4.953,0,0,1,1.643-1.521,4.1,4.1,0,0,1,2.031-.545,2.938,2.938,0,0,1,2.379.962,3.131,3.131,0,0,1,.565,2.6l-2.263,13.495h4.84l2.2-13.059a4.811,4.811,0,0,1,1.457-2.89,4.2,4.2,0,0,1,2.972-1.1,3.176,3.176,0,0,1,2.379.9,3.269,3.269,0,0,1,.593,2.864l-2.236,13.289h4.948l2.345-14.053q.585-3.489-.948-5.323A5.408,5.408,0,0,0,858.7,264.88Z" fill="#4a4949"/>
  </g>
  <g>
    <g clip-path="url(#clip-path)">
      <rect x="74.214" y="171.815" width="120.939" height="133.901" transform="translate(-102.546 101.395) rotate(-30.5)" fill="url(#Unbenannter_Verlauf_7)"/>
    </g>
    <g clip-path="url(#clip-path-2)">
      <rect x="45.082" y="61.691" width="149.654" height="141.319" transform="translate(-51.87 181.207) rotate(-63.7)" fill="url(#Unbenannter_Verlauf_4)"/>
    </g>
    <g clip-path="url(#clip-path-3)">
      <rect x="163.225" y="56.252" width="211.087" height="196.9" transform="translate(-8.092 294.406) rotate(-56.7)" fill="url(#Unbenannter_Verlauf_4-2)"/>
    </g>
    <g clip-path="url(#clip-path-4)">
      <rect x="81.364" y="45.411" width="183.782" height="156.075" transform="translate(-36.937 90.643) rotate(-26.6)" fill="url(#Unbenannter_Verlauf_4-3)"/>
    </g>
    <g clip-path="url(#clip-path-5)">
      <rect x="136.768" y="250.405" width="152.837" height="78.142" fill="url(#Unbenannter_Verlauf_6)"/>
    </g>
    <g clip-path="url(#clip-path-6)">
      <rect x="201.701" y="177.51" width="158.506" height="151.164" transform="translate(-70.422 392.826) rotate(-63.7)" fill="url(#Unbenannter_Verlauf_6-2)"/>
    </g>
    <g clip-path="url(#clip-path-7)">
      <rect x="260.782" y="108.072" width="94.957" height="93.876" transform="translate(-34.284 113.584) rotate(-19.8)" fill="url(#Unbenannter_Verlauf_7-2)"/>
    </g>
  </g>
</svg>
